<?xml version="1.0" encoding="utf-8" standalone="no"?>
<!DOCTYPE svg PUBLIC "-//W3C//DTD SVG 1.1//EN"
  "http://www.w3.org/Graphics/SVG/1.1/DTD/svg11.dtd">
<!-- Created with matplotlib (http://matplotlib.org/) -->
<svg height="316.8pt" version="1.1" viewBox="0 0 460.8 316.8" width="460.8pt" xmlns="http://www.w3.org/2000/svg" xmlns:xlink="http://www.w3.org/1999/xlink">
 <defs>
  <style type="text/css">
*{stroke-linecap:butt;stroke-linejoin:round;}
  </style>
 </defs>
 <g id="figure_1">
  <g id="patch_1">
   <path d="M 0 316.8 
L 460.8 316.8 
L 460.8 0 
L 0 0 
z
" style="fill:#ffffff;"/>
  </g>
  <g id="axes_1">
   <g id="patch_2">
    <path d="M 57.6 281.952 
L 414.72 281.952 
L 414.72 38.016 
L 57.6 38.016 
z
" style="fill:#ffffff;"/>
   </g>
   <g id="matplotlib.axis_1">
    <g id="xtick_1">
     <g id="line2d_1">
      <path clip-path="url(#p9a86a584d2)" d="M 57.6 281.952 
L 57.6 38.016 
" style="fill:none;stroke:#cccccc;stroke-linecap:round;stroke-width:0.8;"/>
     </g>
     <g id="line2d_2"/>
     <g id="text_1">
      <!-- 0 -->
      <defs>
       <path d="M 51.703125 34.421875 
Q 51.703125 17.1875 45.625 8.09375 
Q 39.546875 -0.984375 27.6875 -0.984375 
Q 15.828125 -0.984375 9.859375 8.046875 
Q 3.90625 17.09375 3.90625 34.421875 
Q 3.90625 52.15625 9.6875 60.984375 
Q 15.484375 69.828125 27.984375 69.828125 
Q 40.140625 69.828125 45.921875 60.890625 
Q 51.703125 51.953125 51.703125 34.421875 
z
M 42.78125 34.421875 
Q 42.78125 49.3125 39.328125 56 
Q 35.890625 62.703125 27.984375 62.703125 
Q 19.875 62.703125 16.328125 56.109375 
Q 12.796875 49.515625 12.796875 34.421875 
Q 12.796875 19.78125 16.375 12.984375 
Q 19.96875 6.203125 27.78125 6.203125 
Q 35.546875 6.203125 39.15625 13.125 
Q 42.78125 20.0625 42.78125 34.421875 
z
" id="LiberationSans-30"/>
      </defs>
      <g style="fill:#262626;" transform="translate(55.375625 293.3495)scale(0.08 -0.08)">
       <use xlink:href="#LiberationSans-30"/>
      </g>
     </g>
    </g>
    <g id="xtick_2">
     <g id="line2d_3">
      <path clip-path="url(#p9a86a584d2)" d="M 117.12 281.952 
L 117.12 38.016 
" style="fill:none;stroke:#cccccc;stroke-linecap:round;stroke-width:0.8;"/>
     </g>
     <g id="line2d_4"/>
     <g id="text_2">
      <!-- 5 -->
      <defs>
       <path d="M 51.421875 22.40625 
Q 51.421875 11.53125 44.953125 5.265625 
Q 38.484375 -0.984375 27 -0.984375 
Q 17.390625 -0.984375 11.46875 3.21875 
Q 5.5625 7.421875 4 15.375 
L 12.890625 16.40625 
Q 15.671875 6.203125 27.203125 6.203125 
Q 34.28125 6.203125 38.28125 10.46875 
Q 42.28125 14.75 42.28125 22.21875 
Q 42.28125 28.71875 38.25 32.71875 
Q 34.234375 36.71875 27.390625 36.71875 
Q 23.828125 36.71875 20.75 35.59375 
Q 17.671875 34.46875 14.59375 31.78125 
L 6 31.78125 
L 8.296875 68.796875 
L 47.40625 68.796875 
L 47.40625 61.328125 
L 16.3125 61.328125 
L 14.984375 39.5 
Q 20.703125 43.890625 29.203125 43.890625 
Q 39.359375 43.890625 45.390625 37.9375 
Q 51.421875 31.984375 51.421875 22.40625 
z
" id="LiberationSans-35"/>
      </defs>
      <g style="fill:#262626;" transform="translate(114.895625 293.3495)scale(0.08 -0.08)">
       <use xlink:href="#LiberationSans-35"/>
      </g>
     </g>
    </g>
    <g id="xtick_3">
     <g id="line2d_5">
      <path clip-path="url(#p9a86a584d2)" d="M 176.64 281.952 
L 176.64 38.016 
" style="fill:none;stroke:#cccccc;stroke-linecap:round;stroke-width:0.8;"/>
     </g>
     <g id="line2d_6"/>
     <g id="text_3">
      <!-- 10 -->
      <defs>
       <path d="M 7.625 0 
L 7.625 7.46875 
L 25.140625 7.46875 
L 25.140625 60.40625 
L 9.625 49.3125 
L 9.625 57.625 
L 25.875 68.796875 
L 33.984375 68.796875 
L 33.984375 7.46875 
L 50.734375 7.46875 
L 50.734375 0 
z
" id="LiberationSans-31"/>
      </defs>
      <g style="fill:#262626;" transform="translate(172.19125 293.3495)scale(0.08 -0.08)">
       <use xlink:href="#LiberationSans-31"/>
       <use x="55.615234" xlink:href="#LiberationSans-30"/>
      </g>
     </g>
    </g>
    <g id="xtick_4">
     <g id="line2d_7">
      <path clip-path="url(#p9a86a584d2)" d="M 236.16 281.952 
L 236.16 38.016 
" style="fill:none;stroke:#cccccc;stroke-linecap:round;stroke-width:0.8;"/>
     </g>
     <g id="line2d_8"/>
     <g id="text_4">
      <!-- 15 -->
      <g style="fill:#262626;" transform="translate(231.71125 293.3495)scale(0.08 -0.08)">
       <use xlink:href="#LiberationSans-31"/>
       <use x="55.615234" xlink:href="#LiberationSans-35"/>
      </g>
     </g>
    </g>
    <g id="xtick_5">
     <g id="line2d_9">
      <path clip-path="url(#p9a86a584d2)" d="M 295.68 281.952 
L 295.68 38.016 
" style="fill:none;stroke:#cccccc;stroke-linecap:round;stroke-width:0.8;"/>
     </g>
     <g id="line2d_10"/>
     <g id="text_5">
      <!-- 20 -->
      <defs>
       <path d="M 5.03125 0 
L 5.03125 6.203125 
Q 7.515625 11.921875 11.109375 16.28125 
Q 14.703125 20.65625 18.65625 24.1875 
Q 22.609375 27.734375 26.484375 30.765625 
Q 30.375 33.796875 33.5 36.8125 
Q 36.625 39.84375 38.546875 43.15625 
Q 40.484375 46.484375 40.484375 50.6875 
Q 40.484375 56.34375 37.15625 59.46875 
Q 33.84375 62.59375 27.9375 62.59375 
Q 22.3125 62.59375 18.671875 59.546875 
Q 15.046875 56.5 14.40625 50.984375 
L 5.421875 51.8125 
Q 6.390625 60.0625 12.421875 64.9375 
Q 18.453125 69.828125 27.9375 69.828125 
Q 38.328125 69.828125 43.921875 64.921875 
Q 49.515625 60.015625 49.515625 50.984375 
Q 49.515625 46.96875 47.671875 43.015625 
Q 45.84375 39.0625 42.234375 35.109375 
Q 38.625 31.15625 28.421875 22.859375 
Q 22.796875 18.265625 19.46875 14.578125 
Q 16.15625 10.890625 14.703125 7.46875 
L 50.59375 7.46875 
L 50.59375 0 
z
" id="LiberationSans-32"/>
      </defs>
      <g style="fill:#262626;" transform="translate(291.23125 293.3495)scale(0.08 -0.08)">
       <use xlink:href="#LiberationSans-32"/>
       <use x="55.615234" xlink:href="#LiberationSans-30"/>
      </g>
     </g>
    </g>
    <g id="xtick_6">
     <g id="line2d_11">
      <path clip-path="url(#p9a86a584d2)" d="M 355.2 281.952 
L 355.2 38.016 
" style="fill:none;stroke:#cccccc;stroke-linecap:round;stroke-width:0.8;"/>
     </g>
     <g id="line2d_12"/>
     <g id="text_6">
      <!-- 25 -->
      <g style="fill:#262626;" transform="translate(350.75125 293.3495)scale(0.08 -0.08)">
       <use xlink:href="#LiberationSans-32"/>
       <use x="55.615234" xlink:href="#LiberationSans-35"/>
      </g>
     </g>
    </g>
    <g id="xtick_7">
     <g id="line2d_13">
      <path clip-path="url(#p9a86a584d2)" d="M 414.72 281.952 
L 414.72 38.016 
" style="fill:none;stroke:#cccccc;stroke-linecap:round;stroke-width:0.8;"/>
     </g>
     <g id="line2d_14"/>
     <g id="text_7">
      <!-- 30 -->
      <defs>
       <path d="M 51.21875 19 
Q 51.21875 9.46875 45.15625 4.234375 
Q 39.109375 -0.984375 27.875 -0.984375 
Q 17.4375 -0.984375 11.203125 3.734375 
Q 4.984375 8.453125 3.8125 17.671875 
L 12.890625 18.5 
Q 14.65625 6.296875 27.875 6.296875 
Q 34.515625 6.296875 38.296875 9.5625 
Q 42.09375 12.84375 42.09375 19.28125 
Q 42.09375 24.90625 37.765625 28.046875 
Q 33.453125 31.203125 25.296875 31.203125 
L 20.3125 31.203125 
L 20.3125 38.8125 
L 25.09375 38.8125 
Q 32.328125 38.8125 36.296875 41.96875 
Q 40.28125 45.125 40.28125 50.6875 
Q 40.28125 56.203125 37.03125 59.390625 
Q 33.796875 62.59375 27.390625 62.59375 
Q 21.578125 62.59375 17.984375 59.609375 
Q 14.40625 56.640625 13.8125 51.21875 
L 4.984375 51.90625 
Q 5.953125 60.359375 11.984375 65.09375 
Q 18.015625 69.828125 27.484375 69.828125 
Q 37.84375 69.828125 43.578125 65.015625 
Q 49.3125 60.203125 49.3125 51.609375 
Q 49.3125 45.015625 45.625 40.890625 
Q 41.9375 36.765625 34.90625 35.296875 
L 34.90625 35.109375 
Q 42.625 34.28125 46.921875 29.9375 
Q 51.21875 25.59375 51.21875 19 
z
" id="LiberationSans-33"/>
      </defs>
      <g style="fill:#262626;" transform="translate(410.27125 293.3495)scale(0.08 -0.08)">
       <use xlink:href="#LiberationSans-33"/>
       <use x="55.615234" xlink:href="#LiberationSans-30"/>
      </g>
     </g>
    </g>
    <g id="text_8">
     <!-- $r/r_B$ -->
     <defs>
      <path d="M 44.578125 46.390625 
Q 43.21875 47.125 41.453125 47.515625 
Q 39.703125 47.90625 37.703125 47.90625 
Q 30.515625 47.90625 25.140625 42.453125 
Q 19.78125 37.015625 18.015625 27.875 
L 12.5 0 
L 3.515625 0 
L 14.203125 54.6875 
L 23.1875 54.6875 
L 21.484375 46.1875 
Q 25.046875 50.921875 30 53.453125 
Q 34.96875 56 40.578125 56 
Q 42.046875 56 43.453125 55.828125 
Q 44.875 55.671875 46.296875 55.28125 
z
" id="DejaVuSans-Oblique-72"/>
      <path d="M 25.390625 72.90625 
L 33.6875 72.90625 
L 8.296875 -9.28125 
L 0 -9.28125 
z
" id="DejaVuSans-2f"/>
      <path d="M 16.890625 72.90625 
L 42.09375 72.90625 
Q 52.34375 72.90625 57.421875 69.09375 
Q 62.5 65.28125 62.5 57.625 
Q 62.5 50.59375 58.125 45.484375 
Q 53.765625 40.375 46.6875 39.3125 
Q 52.734375 37.9375 55.765625 34.078125 
Q 58.796875 30.21875 58.796875 23.78125 
Q 58.796875 12.796875 50.65625 6.390625 
Q 42.53125 0 28.421875 0 
L 2.6875 0 
z
M 19.28125 34.8125 
L 14.109375 8.109375 
L 29.984375 8.109375 
Q 38.921875 8.109375 43.75 12.203125 
Q 48.578125 16.3125 48.578125 23.78125 
Q 48.578125 29.546875 45.375 32.171875 
Q 42.1875 34.8125 35.109375 34.8125 
z
M 25.09375 64.796875 
L 20.796875 42.828125 
L 35.5 42.828125 
Q 43.359375 42.828125 47.78125 46.234375 
Q 52.203125 49.65625 52.203125 55.71875 
Q 52.203125 60.453125 49.21875 62.625 
Q 46.234375 64.796875 39.703125 64.796875 
z
" id="DejaVuSans-Oblique-42"/>
     </defs>
     <g style="fill:#262626;" transform="translate(228.812 305.38675)scale(0.088 -0.088)">
      <use transform="translate(0 0.09375)" xlink:href="#DejaVuSans-Oblique-72"/>
      <use transform="translate(41.113281 0.09375)" xlink:href="#DejaVuSans-2f"/>
      <use transform="translate(74.804688 0.09375)" xlink:href="#DejaVuSans-Oblique-72"/>
      <use transform="translate(115.917969 -16.3125)scale(0.7)" xlink:href="#DejaVuSans-Oblique-42"/>
     </g>
    </g>
   </g>
   <g id="matplotlib.axis_2">
    <g id="ytick_1">
     <g id="line2d_15">
      <path clip-path="url(#p9a86a584d2)" d="M 57.6 281.952 
L 414.72 281.952 
" style="fill:none;stroke:#cccccc;stroke-linecap:round;stroke-width:0.8;"/>
     </g>
     <g id="line2d_16"/>
     <g id="text_9">
      <!-- 0.0 -->
      <defs>
       <path d="M 9.125 0 
L 9.125 10.6875 
L 18.65625 10.6875 
L 18.65625 0 
z
" id="LiberationSans-2e"/>
      </defs>
      <g style="fill:#262626;" transform="translate(40.88 284.85075)scale(0.08 -0.08)">
       <use xlink:href="#LiberationSans-30"/>
       <use x="55.615234" xlink:href="#LiberationSans-2e"/>
       <use x="83.398438" xlink:href="#LiberationSans-30"/>
      </g>
     </g>
    </g>
    <g id="ytick_2">
     <g id="line2d_17">
      <path clip-path="url(#p9a86a584d2)" d="M 57.6 237.6 
L 414.72 237.6 
" style="fill:none;stroke:#cccccc;stroke-linecap:round;stroke-width:0.8;"/>
     </g>
     <g id="line2d_18"/>
     <g id="text_10">
      <!-- 0.1 -->
      <g style="fill:#262626;" transform="translate(40.88 240.49875)scale(0.08 -0.08)">
       <use xlink:href="#LiberationSans-30"/>
       <use x="55.615234" xlink:href="#LiberationSans-2e"/>
       <use x="83.398438" xlink:href="#LiberationSans-31"/>
      </g>
     </g>
    </g>
    <g id="ytick_3">
     <g id="line2d_19">
      <path clip-path="url(#p9a86a584d2)" d="M 57.6 193.248 
L 414.72 193.248 
" style="fill:none;stroke:#cccccc;stroke-linecap:round;stroke-width:0.8;"/>
     </g>
     <g id="line2d_20"/>
     <g id="text_11">
      <!-- 0.2 -->
      <g style="fill:#262626;" transform="translate(40.88 196.14675)scale(0.08 -0.08)">
       <use xlink:href="#LiberationSans-30"/>
       <use x="55.615234" xlink:href="#LiberationSans-2e"/>
       <use x="83.398438" xlink:href="#LiberationSans-32"/>
      </g>
     </g>
    </g>
    <g id="ytick_4">
     <g id="line2d_21">
      <path clip-path="url(#p9a86a584d2)" d="M 57.6 148.896 
L 414.72 148.896 
" style="fill:none;stroke:#cccccc;stroke-linecap:round;stroke-width:0.8;"/>
     </g>
     <g id="line2d_22"/>
     <g id="text_12">
      <!-- 0.3 -->
      <g style="fill:#262626;" transform="translate(40.88 151.79475)scale(0.08 -0.08)">
       <use xlink:href="#LiberationSans-30"/>
       <use x="55.615234" xlink:href="#LiberationSans-2e"/>
       <use x="83.398438" xlink:href="#LiberationSans-33"/>
      </g>
     </g>
    </g>
    <g id="ytick_5">
     <g id="line2d_23">
      <path clip-path="url(#p9a86a584d2)" d="M 57.6 104.544 
L 414.72 104.544 
" style="fill:none;stroke:#cccccc;stroke-linecap:round;stroke-width:0.8;"/>
     </g>
     <g id="line2d_24"/>
     <g id="text_13">
      <!-- 0.4 -->
      <defs>
       <path d="M 43.015625 15.578125 
L 43.015625 0 
L 34.71875 0 
L 34.71875 15.578125 
L 2.296875 15.578125 
L 2.296875 22.40625 
L 33.796875 68.796875 
L 43.015625 68.796875 
L 43.015625 22.515625 
L 52.6875 22.515625 
L 52.6875 15.578125 
z
M 34.71875 58.890625 
Q 34.625 58.59375 33.34375 56.296875 
Q 32.078125 54 31.453125 53.078125 
L 13.8125 27.09375 
L 11.1875 23.484375 
L 10.40625 22.515625 
L 34.71875 22.515625 
z
" id="LiberationSans-34"/>
      </defs>
      <g style="fill:#262626;" transform="translate(40.88 107.44275)scale(0.08 -0.08)">
       <use xlink:href="#LiberationSans-30"/>
       <use x="55.615234" xlink:href="#LiberationSans-2e"/>
       <use x="83.398438" xlink:href="#LiberationSans-34"/>
      </g>
     </g>
    </g>
    <g id="ytick_6">
     <g id="line2d_25">
      <path clip-path="url(#p9a86a584d2)" d="M 57.6 60.192 
L 414.72 60.192 
" style="fill:none;stroke:#cccccc;stroke-linecap:round;stroke-width:0.8;"/>
     </g>
     <g id="line2d_26"/>
     <g id="text_14">
      <!-- 0.5 -->
      <g style="fill:#262626;" transform="translate(40.88 63.09075)scale(0.08 -0.08)">
       <use xlink:href="#LiberationSans-30"/>
       <use x="55.615234" xlink:href="#LiberationSans-2e"/>
       <use x="83.398438" xlink:href="#LiberationSans-35"/>
      </g>
     </g>
    </g>
    <g id="text_15">
     <!-- $\rho(r)$ -->
     <defs>
      <path d="M 18.796875 44.921875 
Q 22.703125 49.90625 30.953125 54.296875 
Q 34.1875 56 43.0625 56 
Q 53.03125 56 57.71875 48.09375 
Q 62.40625 40.1875 59.90625 27.296875 
Q 57.375 14.40625 49.609375 6.484375 
Q 41.84375 -1.421875 31.890625 -1.421875 
Q 25.875 -1.421875 22.015625 0.984375 
Q 18.171875 3.328125 16.3125 8.203125 
L 10.640625 -20.796875 
L 1.609375 -20.796875 
L 10.890625 26.8125 
Q 13.09375 38.09375 18.796875 44.921875 
z
M 50.59375 27.296875 
Q 52.484375 37.203125 49.515625 42.875 
Q 46.53125 48.484375 39.40625 48.484375 
Q 32.28125 48.484375 27.09375 42.875 
Q 21.921875 37.203125 20.015625 27.296875 
Q 18.0625 17.390625 21.046875 11.71875 
Q 24.03125 6.109375 31.15625 6.109375 
Q 38.28125 6.109375 43.453125 11.71875 
Q 48.640625 17.390625 50.59375 27.296875 
z
" id="DejaVuSans-Oblique-3c1"/>
      <path d="M 31 75.875 
Q 24.46875 64.65625 21.28125 53.65625 
Q 18.109375 42.671875 18.109375 31.390625 
Q 18.109375 20.125 21.3125 9.0625 
Q 24.515625 -2 31 -13.1875 
L 23.1875 -13.1875 
Q 15.875 -1.703125 12.234375 9.375 
Q 8.59375 20.453125 8.59375 31.390625 
Q 8.59375 42.28125 12.203125 53.3125 
Q 15.828125 64.359375 23.1875 75.875 
z
" id="DejaVuSans-28"/>
      <path d="M 8.015625 75.875 
L 15.828125 75.875 
Q 23.140625 64.359375 26.78125 53.3125 
Q 30.421875 42.28125 30.421875 31.390625 
Q 30.421875 20.453125 26.78125 9.375 
Q 23.140625 -1.703125 15.828125 -13.1875 
L 8.015625 -13.1875 
Q 14.5 -2 17.703125 9.0625 
Q 20.90625 20.125 20.90625 31.390625 
Q 20.90625 42.671875 17.703125 53.65625 
Q 14.5 64.65625 8.015625 75.875 
z
" id="DejaVuSans-29"/>
     </defs>
     <g style="fill:#262626;" transform="translate(35.032 168.036)rotate(-90)scale(0.088 -0.088)">
      <use transform="translate(0 0.125)" xlink:href="#DejaVuSans-Oblique-3c1"/>
      <use transform="translate(63.476562 0.125)" xlink:href="#DejaVuSans-28"/>
      <use transform="translate(102.490234 0.125)" xlink:href="#DejaVuSans-Oblique-72"/>
      <use transform="translate(143.603516 0.125)" xlink:href="#DejaVuSans-29"/>
     </g>
    </g>
   </g>
   <g id="line2d_27">
    <path clip-path="url(#p9a86a584d2)" d="M 57.6 281.952 
L 57.71908 281.77799 
L 57.957239 280.447338 
L 58.314478 276.283964 
L 58.790797 267.418343 
L 59.505275 248.954414 
L 60.696072 210.617267 
L 63.196746 128.813088 
L 64.387543 97.555916 
L 65.34018 77.628458 
L 66.173738 64.012884 
L 67.007296 53.86377 
L 67.721774 47.769829 
L 68.317172 44.400889 
L 68.793491 42.745702 
L 69.15073 42.072014 
L 69.507969 41.856407 
L 69.746129 41.954366 
L 70.103368 42.444644 
L 70.579687 43.699147 
L 71.175085 46.148152 
L 71.889563 50.228029 
L 72.723121 56.323264 
L 73.794838 65.846554 
L 75.223795 80.651017 
L 77.605388 108.105757 
L 81.535018 153.361488 
L 83.678453 175.462474 
L 85.583728 192.922524 
L 87.369923 207.31635 
L 89.037039 219.054823 
L 90.704155 229.244807 
L 92.252191 237.426166 
L 93.800227 244.487578 
L 95.348263 250.544297 
L 96.896299 255.71034 
L 98.444335 260.094653 
L 99.992371 263.798725 
L 101.540407 266.915266 
L 103.088443 269.527661 
L 104.636479 271.709958 
L 106.184515 273.527222 
L 107.851631 275.140857 
L 109.518746 276.457539 
L 111.304942 277.597148 
L 113.329296 278.614643 
L 115.472731 279.441355 
L 117.973404 280.157001 
L 120.831317 280.733834 
L 124.284628 281.193564 
L 128.690577 281.540844 
L 134.763641 281.777386 
L 144.647256 281.909773 
L 169.653991 281.950952 
L 414.72 281.952 
L 414.72 281.952 
" style="fill:none;stroke:#4c72b0;stroke-linecap:round;stroke-width:1.4;"/>
   </g>
   <g id="line2d_28">
    <path clip-path="url(#p9a86a584d2)" d="M 57.6 281.952 
L 57.838159 281.866727 
L 58.195398 281.450359 
L 58.671717 280.453864 
L 59.386195 278.275374 
L 60.576992 273.683672 
L 62.601347 265.905362 
L 63.673064 262.722743 
L 64.506622 260.89229 
L 65.2211 259.802032 
L 65.816499 259.230453 
L 66.411897 258.955479 
L 67.007296 258.961863 
L 67.602694 259.229894 
L 68.198093 259.736528 
L 68.912571 260.623555 
L 69.865208 262.202748 
L 71.056005 264.653218 
L 73.08036 269.452678 
L 75.581034 275.259898 
L 77.00999 278.01216 
L 78.200787 279.816523 
L 79.153424 280.885702 
L 79.986982 281.525915 
L 80.82054 281.878954 
L 81.535018 281.948583 
L 82.249496 281.80221 
L 82.963975 281.441336 
L 83.797533 280.754069 
L 84.75017 279.628556 
L 85.821887 277.950296 
L 87.012684 275.610995 
L 88.322561 272.519166 
L 89.870597 268.263925 
L 91.775872 262.317076 
L 94.276546 253.715277 
L 102.135805 226.134055 
L 104.398319 219.253717 
L 106.422674 213.799268 
L 108.20887 209.60249 
L 109.875985 206.237168 
L 111.424021 203.601013 
L 112.852978 201.586958 
L 114.162854 200.090655 
L 115.472731 198.922112 
L 116.663528 198.136208 
L 117.854325 197.604416 
L 119.045122 197.31653 
L 120.235919 197.261249 
L 121.426716 197.42641 
L 122.736592 197.847372 
L 124.046469 198.501817 
L 125.475425 199.46072 
L 127.023461 200.761144 
L 128.809657 202.561345 
L 130.834011 204.934989 
L 133.215605 208.098357 
L 136.073518 212.294197 
L 139.884068 218.321717 
L 152.506516 238.612541 
L 156.317066 244.159726 
L 159.770377 248.80627 
L 163.104608 252.920444 
L 166.31976 256.532123 
L 169.415832 259.682226 
L 172.511904 262.520051 
L 175.607976 265.059947 
L 178.704048 267.319732 
L 181.9192 269.391393 
L 185.253431 271.268782 
L 188.706742 272.950514 
L 192.279133 274.439565 
L 196.089683 275.781143 
L 200.138393 276.965444 
L 204.544341 278.01515 
L 209.307529 278.91778 
L 214.666115 279.701134 
L 220.73918 280.358154 
L 227.883961 280.898948 
L 236.576779 281.323028 
L 247.77027 281.633249 
L 263.726949 281.834283 
L 291.948836 281.933047 
L 396.262648 281.951986 
L 414.72 281.951996 
L 414.72 281.951996 
" style="fill:none;stroke:#55a868;stroke-linecap:round;stroke-width:1.4;"/>
   </g>
   <g id="line2d_29">
    <path clip-path="url(#p9a86a584d2)" d="M 57.6 281.952 
L 58.076319 281.854937 
L 58.671717 281.508279 
L 59.505275 280.739632 
L 61.172391 278.800082 
L 62.720427 277.129218 
L 63.792144 276.254732 
L 64.744782 275.724141 
L 65.697419 275.435572 
L 66.650057 275.379896 
L 67.602694 275.535408 
L 68.674411 275.925182 
L 69.984288 276.63955 
L 71.889563 277.957256 
L 75.342874 280.373672 
L 77.00999 281.240368 
L 78.438946 281.726747 
L 79.748823 281.935105 
L 81.0587 281.905256 
L 82.368576 281.638326 
L 83.678453 281.145238 
L 85.107409 280.371765 
L 86.774525 279.201897 
L 88.79888 277.4808 
L 91.656792 274.716993 
L 96.41998 270.094049 
L 98.682494 268.219708 
L 100.587769 266.91387 
L 102.373965 265.956722 
L 104.04108 265.316644 
L 105.589116 264.949123 
L 107.137152 264.800595 
L 108.685188 264.865962 
L 110.352304 265.164037 
L 112.138499 265.725447 
L 114.043775 266.569569 
L 116.187209 267.773677 
L 118.806962 269.52371 
L 122.498433 272.291744 
L 128.333338 276.665269 
L 131.19125 278.516108 
L 133.572844 279.80705 
L 135.716279 280.732837 
L 137.740634 281.378422 
L 139.764988 281.786792 
L 141.670263 281.946488 
L 143.575539 281.885278 
L 145.480814 281.604175 
L 147.505168 281.069751 
L 149.529523 280.301723 
L 151.672958 279.248298 
L 153.935472 277.888895 
L 156.436145 276.121359 
L 159.174978 273.910647 
L 162.39013 271.020289 
L 166.43884 267.060896 
L 182.276439 251.225479 
L 185.84883 248.142742 
L 189.183061 245.558615 
L 192.279133 243.442087 
L 195.256125 241.681178 
L 198.114038 240.252497 
L 200.852871 239.127102 
L 203.591704 238.239366 
L 206.330537 237.58511 
L 209.06937 237.157366 
L 211.927282 236.942423 
L 214.785195 236.951149 
L 217.762187 237.182333 
L 220.858259 237.64404 
L 224.192491 238.369256 
L 227.764882 239.377968 
L 231.694512 240.724447 
L 236.10046 242.475645 
L 241.339967 244.81043 
L 248.127509 248.099652 
L 272.419767 260.097548 
L 279.326389 263.134406 
L 285.756692 265.719556 
L 291.948836 267.973029 
L 298.14098 269.991974 
L 304.452204 271.813718 
L 310.882508 273.436691 
L 317.55097 274.888905 
L 324.576672 276.188008 
L 331.959613 277.326536 
L 339.937953 278.330736 
L 348.74985 279.210016 
L 358.514385 279.955122 
L 369.588796 280.572775 
L 382.687563 281.073278 
L 398.763321 281.455473 
L 414.72 281.675056 
L 414.72 281.675056 
" style="fill:none;stroke:#c44e52;stroke-linecap:round;stroke-width:1.4;"/>
   </g>
   <g id="line2d_30">
    <path clip-path="url(#p9a86a584d2)" d="M 57.6 281.952 
L 61.172391 281.840972 
L 62.601347 281.57372 
L 63.792144 281.147759 
L 64.982941 280.481397 
L 66.173738 279.532003 
L 67.364535 278.268198 
L 68.555332 276.670609 
L 69.865208 274.519113 
L 71.294165 271.708054 
L 72.842201 268.146927 
L 74.628396 263.44325 
L 76.771831 257.112814 
L 79.629743 247.891161 
L 86.893605 224.10233 
L 89.275198 217.208057 
L 91.299553 211.973656 
L 93.204828 207.651389 
L 94.871944 204.387414 
L 96.41998 201.806449 
L 97.848936 199.814192 
L 99.277893 198.196031 
L 100.587769 197.037066 
L 101.897646 196.181349 
L 103.088443 195.658821 
L 104.27924 195.370849 
L 105.470037 195.307825 
L 106.660834 195.459173 
L 107.97071 195.859687 
L 109.280587 196.489912 
L 110.709543 197.419969 
L 112.257579 198.688339 
L 114.043775 200.453009 
L 116.068129 202.791204 
L 118.330644 205.757886 
L 121.069476 209.736817 
L 124.641867 215.36009 
L 131.548489 226.772279 
L 137.026155 235.599372 
L 141.074865 241.704979 
L 144.647256 246.698732 
L 147.981487 250.98822 
L 151.196639 254.770185 
L 154.292711 258.081684 
L 157.388783 261.075586 
L 160.484855 263.764183 
L 163.580927 266.163843 
L 166.796079 268.370425 
L 170.01123 270.309074 
L 173.345462 272.062001 
L 176.798773 273.628996 
L 180.490243 275.056173 
L 184.419873 276.329868 
L 188.587663 277.443629 
L 193.112691 278.420729 
L 198.114038 279.270206 
L 203.710784 279.992753 
L 210.141087 280.595842 
L 217.881267 281.089203 
L 227.407643 281.463736 
L 240.14917 281.728388 
L 259.55916 281.886401 
L 300.522574 281.947602 
L 414.72 281.951999 
L 414.72 281.951999 
" style="fill:none;stroke:#8172b2;stroke-linecap:round;stroke-width:1.4;"/>
   </g>
   <g id="patch_3">
    <path d="M 57.6 281.952 
L 57.6 38.016 
" style="fill:none;stroke:#cccccc;stroke-linecap:square;stroke-linejoin:miter;"/>
   </g>
   <g id="patch_4">
    <path d="M 414.72 281.952 
L 414.72 38.016 
" style="fill:none;stroke:#cccccc;stroke-linecap:square;stroke-linejoin:miter;"/>
   </g>
   <g id="patch_5">
    <path d="M 57.6 281.952 
L 414.72 281.952 
" style="fill:none;stroke:#cccccc;stroke-linecap:square;stroke-linejoin:miter;"/>
   </g>
   <g id="patch_6">
    <path d="M 57.6 38.016 
L 414.72 38.016 
" style="fill:none;stroke:#cccccc;stroke-linecap:square;stroke-linejoin:miter;"/>
   </g>
   <g id="legend_1">
    <g id="line2d_31">
     <path d="M 376.2225 48.2135 
L 392.2225 48.2135 
" style="fill:none;stroke:#4c72b0;stroke-linecap:round;stroke-width:1.4;"/>
    </g>
    <g id="line2d_32"/>
    <g id="text_16">
     <!-- 1s -->
     <defs>
      <path d="M 46.390625 14.59375 
Q 46.390625 7.125 40.75 3.0625 
Q 35.109375 -0.984375 24.953125 -0.984375 
Q 15.09375 -0.984375 9.734375 2.265625 
Q 4.390625 5.515625 2.78125 12.40625 
L 10.546875 13.921875 
Q 11.671875 9.671875 15.1875 7.6875 
Q 18.703125 5.71875 24.953125 5.71875 
Q 31.640625 5.71875 34.734375 7.765625 
Q 37.84375 9.8125 37.84375 13.921875 
Q 37.84375 17.046875 35.6875 19 
Q 33.546875 20.953125 28.765625 22.21875 
L 22.46875 23.875 
Q 14.890625 25.828125 11.6875 27.703125 
Q 8.5 29.59375 6.6875 32.28125 
Q 4.890625 34.96875 4.890625 38.875 
Q 4.890625 46.09375 10.03125 49.875 
Q 15.1875 53.65625 25.046875 53.65625 
Q 33.796875 53.65625 38.9375 50.578125 
Q 44.09375 47.515625 45.453125 40.71875 
L 37.546875 39.75 
Q 36.8125 43.265625 33.609375 45.140625 
Q 30.421875 47.015625 25.046875 47.015625 
Q 19.09375 47.015625 16.25 45.203125 
Q 13.421875 43.40625 13.421875 39.75 
Q 13.421875 37.5 14.59375 36.03125 
Q 15.765625 34.578125 18.0625 33.546875 
Q 20.359375 32.515625 27.734375 30.71875 
Q 34.71875 28.953125 37.796875 27.46875 
Q 40.875 25.984375 42.65625 24.171875 
Q 44.4375 22.359375 45.40625 19.984375 
Q 46.390625 17.625 46.390625 14.59375 
z
" id="LiberationSans-73"/>
     </defs>
     <g style="fill:#262626;" transform="translate(398.6225 51.0135)scale(0.08 -0.08)">
      <use xlink:href="#LiberationSans-31"/>
      <use x="55.615234" xlink:href="#LiberationSans-73"/>
     </g>
    </g>
    <g id="line2d_33">
     <path d="M 376.2225 59.671 
L 392.2225 59.671 
" style="fill:none;stroke:#55a868;stroke-linecap:round;stroke-width:1.4;"/>
    </g>
    <g id="line2d_34"/>
    <g id="text_17">
     <!-- 2s -->
     <g style="fill:#262626;" transform="translate(398.6225 62.471)scale(0.08 -0.08)">
      <use xlink:href="#LiberationSans-32"/>
      <use x="55.615234" xlink:href="#LiberationSans-73"/>
     </g>
    </g>
    <g id="line2d_35">
     <path d="M 376.2225 71.1285 
L 392.2225 71.1285 
" style="fill:none;stroke:#c44e52;stroke-linecap:round;stroke-width:1.4;"/>
    </g>
    <g id="line2d_36"/>
    <g id="text_18">
     <!-- 3s -->
     <g style="fill:#262626;" transform="translate(398.6225 73.9285)scale(0.08 -0.08)">
      <use xlink:href="#LiberationSans-33"/>
      <use x="55.615234" xlink:href="#LiberationSans-73"/>
     </g>
    </g>
    <g id="line2d_37">
     <path d="M 376.2225 82.586 
L 392.2225 82.586 
" style="fill:none;stroke:#8172b2;stroke-linecap:round;stroke-width:1.4;"/>
    </g>
    <g id="line2d_38"/>
    <g id="text_19">
     <!-- 2p -->
     <defs>
      <path d="M 51.421875 26.65625 
Q 51.421875 -0.984375 31.984375 -0.984375 
Q 19.78125 -0.984375 15.578125 8.203125 
L 15.328125 8.203125 
Q 15.53125 7.8125 15.53125 -0.09375 
L 15.53125 -20.75 
L 6.734375 -20.75 
L 6.734375 42.046875 
Q 6.734375 50.203125 6.453125 52.828125 
L 14.9375 52.828125 
Q 14.984375 52.640625 15.078125 51.4375 
Q 15.1875 50.25 15.3125 47.75 
Q 15.4375 45.265625 15.4375 44.34375 
L 15.625 44.34375 
Q 17.96875 49.21875 21.828125 51.484375 
Q 25.6875 53.765625 31.984375 53.765625 
Q 41.75 53.765625 46.578125 47.21875 
Q 51.421875 40.671875 51.421875 26.65625 
z
M 42.1875 26.46875 
Q 42.1875 37.5 39.203125 42.234375 
Q 36.234375 46.96875 29.734375 46.96875 
Q 24.515625 46.96875 21.5625 44.765625 
Q 18.609375 42.578125 17.0625 37.90625 
Q 15.53125 33.25 15.53125 25.78125 
Q 15.53125 15.375 18.84375 10.4375 
Q 22.171875 5.515625 29.640625 5.515625 
Q 36.1875 5.515625 39.1875 10.328125 
Q 42.1875 15.140625 42.1875 26.46875 
z
" id="LiberationSans-70"/>
     </defs>
     <g style="fill:#262626;" transform="translate(398.6225 85.386)scale(0.08 -0.08)">
      <use xlink:href="#LiberationSans-32"/>
      <use x="55.615234" xlink:href="#LiberationSans-70"/>
     </g>
    </g>
   </g>
  </g>
 </g>
 <defs>
  <clipPath id="p9a86a584d2">
   <rect height="243.936" width="357.12" x="57.6" y="38.016"/>
  </clipPath>
 </defs>
</svg>
